<svg width="36" height="36" viewBox="0 0 36 36" fill="none" xmlns="http://www.w3.org/2000/svg">
<path d="M31.5 18.0008C31.5045 20.6809 30.7073 23.3012 29.211 25.5248C27.977 27.3652 26.3086 28.8732 24.3532 29.9155C22.3979 30.9578 20.2158 31.5023 18 31.5008C15.7842 31.5023 13.6021 30.9578 11.6468 29.9155C9.6914 28.8732 8.02297 27.3652 6.789 25.5248C5.6141 23.7734 4.86585 21.7711 4.60426 19.6784C4.34266 17.5858 4.57499 15.4609 5.28262 13.4742C5.99025 11.4875 7.15349 9.69422 8.6791 8.23811C10.2047 6.782 12.0502 5.70358 14.0678 5.08928C16.0853 4.47499 18.2187 4.34192 20.2969 4.70073C22.3751 5.05955 24.3403 5.90027 26.0351 7.1555C27.7298 8.41074 29.1069 10.0456 30.0559 11.9289C31.0049 13.8123 31.4995 15.8918 31.5 18.0008Z" stroke="#8BADE9" stroke-width="2"/>
<path d="M19.5 13.5C19.5 13.8978 19.342 14.2794 19.0607 14.5607C18.7794 14.842 18.3979 15 18 15V18C19.1935 18 20.3381 17.5259 21.182 16.682C22.0259 15.8381 22.5 14.6935 22.5 13.5H19.5ZM18 15C17.6022 15 17.2207 14.842 16.9394 14.5607C16.6581 14.2794 16.5 13.8978 16.5 13.5H13.5C13.5 14.6935 13.9742 15.8381 14.8181 16.682C15.662 17.5259 16.8066 18 18 18V15ZM16.5 13.5C16.5 13.1022 16.6581 12.7206 16.9394 12.4393C17.2207 12.158 17.6022 12 18 12V9C16.8066 9 15.662 9.47411 14.8181 10.318C13.9742 11.1619 13.5 12.3065 13.5 13.5H16.5ZM18 12C18.3979 12 18.7794 12.158 19.0607 12.4393C19.342 12.7206 19.5 13.1022 19.5 13.5H22.5C22.5 12.3065 22.0259 11.1619 21.182 10.318C20.3381 9.47411 19.1935 9 18 9V12ZM7.74905 26.784L6.5 25.8075L7.0298 26.5702L7.74905 26.784ZM28.251 26.784L29 27.141L29.5 25.8075L28.251 26.784ZM13.5 24H22.5V21H13.5V24ZM13.5 21C11.8847 21 10.3126 21.5213 9.01726 22.4863C7.72194 23.4514 6.96211 24.2597 6.5 25.8075L9.18605 27.2115C9.46393 26.2833 10.0338 25.4695 10.8109 24.891C11.5881 24.3124 12.5312 24 13.5 24V21ZM18 30C16.2683 30.002 14.5567 29.6281 12.9835 28.9043C11.4102 28.1805 10.0128 27.1239 8.88755 25.8075L7.0298 26.5702C8.43662 28.215 9.53373 29.0955 11.5 30C13.4663 30.9045 16.3356 31.6319 18.5 31.63L18 30ZM22.5 24C24.5355 24 26.259 25.353 26.814 27.213L29.5 25.8075C29.038 24.26 28.277 23.4518 26.9819 22.4868C25.6869 21.5217 24.1151 21.0003 22.5 21V24ZM27.1125 25.8075C25.9873 27.1239 24.5899 28.1805 23.0166 28.9043C21.4434 29.6281 19.7318 30.002 18 30L18.5 31.63C20.6644 31.6319 22.0337 30.9045 24 30C25.9663 29.0955 27.5932 28.7858 29 27.141L27.1125 25.8075Z" fill="#8BADE9"/>
</svg>
