<svg width="36" height="36" viewBox="0 0 36 36" fill="none" xmlns="http://www.w3.org/2000/svg">
<path d="M8.301 18.76C8.48542 18.6901 8.68374 18.6537 8.88424 18.653C9.08475 18.6524 9.28336 18.6875 9.46834 18.7562C9.65332 18.825 9.82092 18.926 9.96123 19.0533C10.1015 19.1807 10.2117 19.3317 10.2852 19.4975C10.3587 19.6633 10.3941 19.8406 10.3892 20.0187C10.3844 20.1969 10.3394 20.3724 10.2569 20.5348C10.1744 20.6973 10.0561 20.8434 9.90903 20.9645C9.76194 21.0856 9.58902 21.1793 9.4005 21.24C8.39781 21.5912 7.53724 22.2025 6.93076 22.9944C6.32427 23.7862 5.99995 24.722 6 25.68V28C6 28.3536 6.15804 28.6928 6.43934 28.9428C6.72064 29.1929 7.10218 29.3333 7.5 29.3333H19.5C19.8978 29.3333 20.2794 29.1929 20.5607 28.9428C20.842 28.6928 21 28.3536 21 28V25.804C21.0002 24.8153 20.6623 23.8499 20.0312 23.0358C19.4 22.2216 18.5054 21.5972 17.466 21.2453C17.2763 21.1868 17.1018 21.0951 16.9527 20.9755C16.8037 20.8559 16.6831 20.7109 16.5983 20.5492C16.5134 20.3874 16.466 20.2121 16.4587 20.0338C16.4515 19.8554 16.4846 19.6776 16.5561 19.5108C16.6276 19.344 16.7361 19.1917 16.8751 19.0629C17.014 18.9341 17.1807 18.8314 17.3651 18.7608C17.5496 18.6903 17.7481 18.6534 17.9489 18.6524C18.1496 18.6513 18.3486 18.6861 18.534 18.7547C20.1414 19.2989 21.5248 20.2644 22.501 21.5233C23.4771 22.7822 23.9999 24.2751 24 25.804V28C24 29.0609 23.5259 30.0783 22.682 30.8284C21.8381 31.5786 20.6935 32 19.5 32H7.5C6.30653 32 5.16193 31.5786 4.31802 30.8284C3.47411 30.0783 3 29.0609 3 28L3 25.68C3.00021 24.1869 3.50592 22.7284 4.45134 21.4942C5.39677 20.26 6.73815 19.3073 8.301 18.76ZM13.5 5.33333C15.0913 5.33333 16.6174 5.89524 17.7426 6.89543C18.8679 7.89562 19.5 9.25218 19.5 10.6667V13.3333C19.5 14.7478 18.8679 16.1044 17.7426 17.1046C16.6174 18.1048 15.0913 18.6667 13.5 18.6667C11.9087 18.6667 10.3826 18.1048 9.25736 17.1046C8.13214 16.1044 7.5 14.7478 7.5 13.3333V10.6667C7.5 9.25218 8.13214 7.89562 9.25736 6.89543C10.3826 5.89524 11.9087 5.33333 13.5 5.33333ZM13.5 8C12.7044 8 11.9413 8.28095 11.3787 8.78105C10.8161 9.28115 10.5 9.95942 10.5 10.6667V13.3333C10.5 14.0406 10.8161 14.7189 11.3787 15.219C11.9413 15.719 12.7044 16 13.5 16C14.2957 16 15.0587 15.719 15.6213 15.219C16.1839 14.7189 16.5 14.0406 16.5 13.3333V10.6667C16.5 9.95942 16.1839 9.28115 15.6213 8.78105C15.0587 8.28095 14.2957 8 13.5 8ZM27 30.6667C26.6022 30.6667 26.2206 30.5262 25.9393 30.2761C25.658 30.0261 25.5 29.687 25.5 29.3333C25.5 28.9797 25.658 28.6406 25.9393 28.3905C26.2206 28.1405 26.6022 28 27 28H28.5C28.8978 28 29.2794 27.8595 29.5607 27.6095C29.842 27.3594 30 27.0203 30 26.6667V24.216C29.9999 23.2682 29.6644 22.3444 29.0409 21.5756C28.4174 20.8067 27.5376 20.2317 26.526 19.932C26.3391 19.8767 26.1662 19.7892 26.0173 19.6744C25.8684 19.5597 25.7464 19.4201 25.6583 19.2635C25.5701 19.1068 25.5175 18.9363 25.5035 18.7616C25.4894 18.5869 25.5143 18.4115 25.5765 18.2453C25.6388 18.0792 25.7372 17.9255 25.8663 17.7932C25.9953 17.6608 26.1524 17.5524 26.3286 17.474C26.5048 17.3956 26.6966 17.3489 26.8932 17.3364C27.0897 17.3239 27.2871 17.346 27.474 17.4013C29.0832 17.878 30.4828 18.7926 31.4746 20.0157C32.4664 21.2388 33.0001 22.7083 33 24.216V26.6667C33 27.7275 32.5259 28.7449 31.682 29.4951C30.8381 30.2452 29.6935 30.6667 28.5 30.6667H27ZM22.5 6.66667C22.1022 6.66667 21.7206 6.52619 21.4393 6.27614C21.158 6.02609 21 5.68696 21 5.33333C21 4.97971 21.158 4.64057 21.4393 4.39052C21.7206 4.14048 22.1022 4 22.5 4C24.0913 4 25.6174 4.5619 26.7426 5.5621C27.8679 6.56229 28.5 7.91885 28.5 9.33333V12C28.5 13.4145 27.8679 14.771 26.7426 15.7712C25.6174 16.7714 24.0913 17.3333 22.5 17.3333C22.1022 17.3333 21.7206 17.1929 21.4393 16.9428C21.158 16.6928 21 16.3536 21 16C21 15.6464 21.158 15.3072 21.4393 15.0572C21.7206 14.8071 22.1022 14.6667 22.5 14.6667C23.2957 14.6667 24.0587 14.3857 24.6213 13.8856C25.1839 13.3855 25.5 12.7072 25.5 12V9.33333C25.5 8.62609 25.1839 7.94781 24.6213 7.44772C24.0587 6.94762 23.2957 6.66667 22.5 6.66667Z" fill="white"/>
</svg>
